<svg width="300" height="445" viewBox="0 0 300 445" fill="none" xmlns="http://www.w3.org/2000/svg">
<rect width="300" height="445" fill="#D4D4D4"/>
<path d="M84.224 211.088V236H80.948V217.424L72.668 236H70.364L62.048 217.388V236H58.772V211.088H62.3L71.516 231.68L80.732 211.088H84.224ZM98.3838 236.324C96.5358 236.324 94.8558 235.904 93.3438 235.064C91.8558 234.224 90.6798 233.036 89.8158 231.5C88.9758 229.94 88.5558 228.14 88.5558 226.1C88.5558 224.084 88.9878 222.308 89.8518 220.772C90.7398 219.212 91.9398 218.024 93.4518 217.208C94.9638 216.368 96.6558 215.948 98.5278 215.948C100.4 215.948 102.092 216.368 103.604 217.208C105.116 218.024 106.304 219.2 107.168 220.736C108.056 222.272 108.5 224.06 108.5 226.1C108.5 228.14 108.044 229.94 107.132 231.5C106.244 233.036 105.032 234.224 103.496 235.064C101.96 235.904 100.256 236.324 98.3838 236.324ZM98.3838 233.444C99.5598 233.444 100.664 233.168 101.696 232.616C102.728 232.064 103.556 231.236 104.18 230.132C104.828 229.028 105.152 227.684 105.152 226.1C105.152 224.516 104.84 223.172 104.216 222.068C103.592 220.964 102.776 220.148 101.768 219.62C100.76 219.068 99.6678 218.792 98.4918 218.792C97.2918 218.792 96.1878 219.068 95.1798 219.62C94.1958 220.148 93.4038 220.964 92.8038 222.068C92.2038 223.172 91.9038 224.516 91.9038 226.1C91.9038 227.708 92.1918 229.064 92.7678 230.168C93.3678 231.272 94.1598 232.1 95.1438 232.652C96.1278 233.18 97.2078 233.444 98.3838 233.444ZM120.151 232.976L126.271 216.272H129.763L122.023 236H118.207L110.467 216.272H113.995L120.151 232.976ZM134.679 213.068C134.055 213.068 133.527 212.852 133.095 212.42C132.663 211.988 132.447 211.46 132.447 210.836C132.447 210.212 132.663 209.684 133.095 209.252C133.527 208.82 134.055 208.604 134.679 208.604C135.279 208.604 135.783 208.82 136.191 209.252C136.623 209.684 136.839 210.212 136.839 210.836C136.839 211.46 136.623 211.988 136.191 212.42C135.783 212.852 135.279 213.068 134.679 213.068ZM136.263 216.272V236H132.987V216.272H136.263ZM159.846 225.38C159.846 226.004 159.81 226.664 159.738 227.36H143.97C144.09 229.304 144.75 230.828 145.95 231.932C147.174 233.012 148.65 233.552 150.378 233.552C151.794 233.552 152.97 233.228 153.906 232.58C154.866 231.908 155.538 231.02 155.922 229.916H159.45C158.922 231.812 157.866 233.36 156.282 234.56C154.698 235.736 152.73 236.324 150.378 236.324C148.506 236.324 146.826 235.904 145.338 235.064C143.874 234.224 142.722 233.036 141.882 231.5C141.042 229.94 140.622 228.14 140.622 226.1C140.622 224.06 141.03 222.272 141.846 220.736C142.662 219.2 143.802 218.024 145.266 217.208C146.754 216.368 148.458 215.948 150.378 215.948C152.25 215.948 153.906 216.356 155.346 217.172C156.786 217.988 157.89 219.116 158.658 220.556C159.45 221.972 159.846 223.58 159.846 225.38ZM156.462 224.696C156.462 223.448 156.186 222.38 155.634 221.492C155.082 220.58 154.326 219.896 153.366 219.44C152.43 218.96 151.386 218.72 150.234 218.72C148.578 218.72 147.162 219.248 145.986 220.304C144.834 221.36 144.174 222.824 144.006 224.696H156.462ZM188.6 230.42H177.656L175.64 236H172.184L181.256 211.052H185.036L194.072 236H190.616L188.6 230.42ZM187.664 227.756L183.128 215.084L178.592 227.756H187.664ZM201.302 219.908C201.95 218.78 202.91 217.844 204.182 217.1C205.478 216.332 206.978 215.948 208.682 215.948C210.434 215.948 212.018 216.368 213.434 217.208C214.874 218.048 216.002 219.236 216.818 220.772C217.634 222.284 218.042 224.048 218.042 226.064C218.042 228.056 217.634 229.832 216.818 231.392C216.002 232.952 214.874 234.164 213.434 235.028C212.018 235.892 210.434 236.324 208.682 236.324C207.002 236.324 205.514 235.952 204.218 235.208C202.946 234.44 201.974 233.492 201.302 232.364V245.36H198.026V216.272H201.302V219.908ZM214.694 226.064C214.694 224.576 214.394 223.28 213.794 222.176C213.194 221.072 212.378 220.232 211.346 219.656C210.338 219.08 209.222 218.792 207.998 218.792C206.798 218.792 205.682 219.092 204.65 219.692C203.642 220.268 202.826 221.12 202.202 222.248C201.602 223.352 201.302 224.636 201.302 226.1C201.302 227.588 201.602 228.896 202.202 230.024C202.826 231.128 203.642 231.98 204.65 232.58C205.682 233.156 206.798 233.444 207.998 233.444C209.222 233.444 210.338 233.156 211.346 232.58C212.378 231.98 213.194 231.128 213.794 230.024C214.394 228.896 214.694 227.576 214.694 226.064ZM225.63 219.908C226.278 218.78 227.238 217.844 228.51 217.1C229.806 216.332 231.306 215.948 233.01 215.948C234.762 215.948 236.346 216.368 237.762 217.208C239.202 218.048 240.33 219.236 241.146 220.772C241.962 222.284 242.37 224.048 242.37 226.064C242.37 228.056 241.962 229.832 241.146 231.392C240.33 232.952 239.202 234.164 237.762 235.028C236.346 235.892 234.762 236.324 233.01 236.324C231.33 236.324 229.842 235.952 228.546 235.208C227.274 234.44 226.302 233.492 225.63 232.364V245.36H222.354V216.272H225.63V219.908ZM239.022 226.064C239.022 224.576 238.722 223.28 238.122 222.176C237.522 221.072 236.706 220.232 235.674 219.656C234.666 219.08 233.55 218.792 232.326 218.792C231.126 218.792 230.01 219.092 228.978 219.692C227.97 220.268 227.154 221.12 226.53 222.248C225.93 223.352 225.63 224.636 225.63 226.1C225.63 227.588 225.93 228.896 226.53 230.024C227.154 231.128 227.97 231.98 228.978 232.58C230.01 233.156 231.126 233.444 232.326 233.444C233.55 233.444 234.666 233.156 235.674 232.58C236.706 231.98 237.522 231.128 238.122 230.024C238.722 228.896 239.022 227.576 239.022 226.064Z" fill="#8B8B8B"/>
</svg>
